<?xml version="1.0" encoding="utf-8"?>
<!-- Generator: Adobe Illustrator 28.2.0, SVG Export Plug-In . SVG Version: 6.00 Build 0)  -->
<svg version="1.1" id="Layer_1" xmlns="http://www.w3.org/2000/svg" xmlns:xlink="http://www.w3.org/1999/xlink" x="0px" y="0px"
	 viewBox="0 0 220 170" style="enable-background:new 0 0 220 170;" xml:space="preserve">
<style type="text/css">
	.st0{fill:#FFD700;}
</style>
<path class="st0" d="M215,47.2c-3.3-10.4-8.2-18.9-14.6-25.6C194.1,15,186.1,10.1,176.6,7c-9.6-3.1-20.6-4.6-33.1-4.6H50.8
	c-1,0-1.9,0.6-2.4,1.5l-14.1,28L9.6,80.9c-0.9,1.8,0.4,3.9,2.4,3.9h28l-26.8,53.3L0.3,163.8c-0.9,1.8,0.4,3.9,2.4,3.9h140.7
	c12.5,0,23.5-1.6,33-4.8c9.5-3.2,17.5-8.1,23.9-14.8c6.5-6.7,11.4-15.3,14.7-25.8c3.3-10.5,5-23.1,5-37.7
	C220,70.1,218.3,57.6,215,47.2z M175.1,125.6c-6.7,8.4-17.4,12.6-32.1,12.6H50.2c-2,0-3.3-2.1-2.4-3.9l22.9-45.6
	c0.9-1.8-0.4-3.9-2.4-3.9h-28l25.9-51.5c0.5-0.9,1.4-1.5,2.4-1.5H143c14.7,0,25.4,4.1,32.1,12.4c6.7,8.3,10,21.7,10,40.5
	C185.1,103.5,181.8,117.2,175.1,125.6z"/>
</svg>
